<?xml version="1.0" encoding="utf-8"?><svg xmlns="http://www.w3.org/2000/svg" xmlns:xlink="http://www.w3.org/1999/xlink" width="1920" height="979" preserveAspectRatio="xMidYMid" viewBox="0 0 1920 979" style="z-index:1;margin-right:-2px;display:block;background-repeat-y:initial;background-repeat-x:initial;background-color:rgb(255, 255, 255);animation-play-state:paused" ><g transform="translate(960,489.5) scale(1,1) translate(-960,-489.5)" style="transform:matrix(1, 0, 0, 1, 0, 0);animation-play-state:paused" ><linearGradient id="lg-0.9788320561362285" x1="0" x2="1" y1="0" y2="0" style="animation-play-state:paused" ><stop stop-color="#ff00ff" offset="0" style="animation-play-state:paused" ></stop>

  
<stop stop-color="#00ffff" offset="1" style="animation-play-state:paused" ></stop></linearGradient>
<path d="M 1562.2 490 C 1562.2 648.4 1247.6 859.6 1096.4 908.4 C 945.2 957.2 599.6 947.6 506.2 819.6 C 412.8 691.6 453.6 318.4 547 189.6 C 640.4 60.8 937.8 42.8 1089 91.6 C 1240.2 140.4 1562.2 331.6 1562.2 490" fill="url(#lg-0.9788320561362285)" opacity="0.4" style="opacity:0.4;animation-play-state:paused" ></path>
<path d="M 1550.8 490 C 1550.8 651.8 1259.2 888.8 1105.4 938.2 C 951.6 987.6 658.8 907.6 564 777.4 C 469.2 647.2 423.8 298.6 518.6 168.4 C 613.4 38.2 918.4 93.8 1072.2 143.2 C 1226 192.6 1550.8 328.2 1550.8 490" fill="url(#lg-0.9788320561362285)" opacity="0.4" style="opacity:0.4;animation-play-state:paused" ></path>
<path d="M 1621.2 490 C 1621.2 668.4 1258.8 830.4 1088.6 885.8 C 918.4 941.2 565 997.4 460.2 852.4 C 355.4 707.4 346.4 265.2 451.2 120.2 C 556 -24.8 953.6 -69.6 1123.8 -14.2 C 1294 41.2 1621.2 311.6 1621.2 490" fill="url(#lg-0.9788320561362285)" opacity="0.4" style="opacity:0.4;animation-play-state:paused" ></path>
<path d="M 1624.8 490 C 1624.8 671.4 1299.8 947.8 1127.2 1004 C 954.6 1060.2 583.2 987.6 476.6 840.6 C 370 693.6 421.4 322.2 528 175.2 C 634.6 28.2 940.6 -37.6 1113.2 18.6 C 1285.8 74.8 1624.8 308.6 1624.8 490" fill="url(#lg-0.9788320561362285)" opacity="0.4" style="opacity:0.4;animation-play-state:paused" ></path>
<path d="M 1566.4 490 C 1566.4 674.8 1280.6 876 1104.8 933.6 C 929 991.2 567.6 1003.8 458.4 854 C 349.2 704.2 378.4 295.6 487.6 145.8 C 596.8 -4 917.2 23.4 1093 81 C 1268.8 138.6 1566.4 305.2 1566.4 490" fill="url(#lg-0.9788320561362285)" opacity="0.4" style="opacity:0.4;animation-play-state:paused" ></path></g></svg>